<?xml version="1.0" encoding="UTF-8" standalone="no"?>
<!-- Creator: CorelDRAW X5 -->

<svg
   xmlns:dc="http://purl.org/dc/elements/1.1/"
   xmlns:cc="http://creativecommons.org/ns#"
   xmlns:rdf="http://www.w3.org/1999/02/22-rdf-syntax-ns#"
   xmlns:svg="http://www.w3.org/2000/svg"
   xmlns="http://www.w3.org/2000/svg"
   xmlns:sodipodi="http://sodipodi.sourceforge.net/DTD/sodipodi-0.dtd"
   xmlns:inkscape="http://www.inkscape.org/namespaces/inkscape"
   xml:space="preserve"
   width="200mm"
   height="200mm"
   style="shape-rendering:geometricPrecision; text-rendering:geometricPrecision; image-rendering:optimizeQuality; fill-rule:evenodd; clip-rule:evenodd"
   viewBox="0 0 20000 20000"
   enable-background="new 0 0 32 32"
   version="1.1"
   id="svg2"
   inkscape:version="0.91 r13725"
   sodipodi:docname="hJOP.svg"><metadata
     id="metadata20"><rdf:RDF><cc:Work
         rdf:about=""><dc:format>image/svg+xml</dc:format><dc:type
           rdf:resource="http://purl.org/dc/dcmitype/StillImage" /><dc:title></dc:title></cc:Work></rdf:RDF></metadata><sodipodi:namedview
     pagecolor="#00ffff"
     bordercolor="#666666"
     borderopacity="1"
     objecttolerance="10"
     gridtolerance="10"
     guidetolerance="10"
     inkscape:pageopacity="0"
     inkscape:pageshadow="2"
     inkscape:window-width="960"
     inkscape:window-height="1182"
     id="namedview18"
     showgrid="false"
     inkscape:zoom="0.47298391"
     inkscape:cx="212.62746"
     inkscape:cy="-27.292376"
     inkscape:window-x="960"
     inkscape:window-y="0"
     inkscape:window-maximized="0"
     inkscape:current-layer="svg2" /><defs
     id="defs4"><style
       type="text/css"
       id="style6"><![CDATA[
    .fil0 {fill:none}
    .fil1 {fill:black}
   ]]></style></defs><rect
     class="fil0"
     x="654"
     y="494"
     width="18775"
     height="18775"
     id="rect11"
     style="fill:none;stroke:none;stroke-opacity:1" /><path
     class="fil1"
     d="m 18255,10672 0,-3138 -1173,0 0,-1173 1173,0 0,-4694 -16428,0 0,4694 1173,0 0,1173 -1173,0 0,4694 1173,0 0,1173 -1173,0 0,4694 9005,0 c 907,732 2059,1173 3316,1173 2916,-1 5279,-2364 5280,-5280 0,-1257 -441,-2409 -1173,-3316 z m -9353,2729 -4728,0 0,-1173 5000,0 c -132,374 -227,766 -272,1173 z m 7006,-5867 -11734,0 0,-1173 11734,0 0,1173 z M 3001,4014 l 2347,0 0,1173 -2347,0 0,-1173 z m 0,5867 2347,0 0,1173 -2347,0 0,-1173 z m 2347,7040 -2347,0 0,-1173 2347,0 0,1173 z m 8801,1105 c -2230,-5 -4034,-1809 -4040,-4038 5,-2230 1809,-4034 4040,-4040 2229,5 4033,1809 4038,4040 -5,2229 -1809,4033 -4038,4038 z"
     id="path13"
     inkscape:connector-curvature="0"
     style="fill:#ffffff;stroke:none;stroke-opacity:1;fill-opacity:1" /><path
     id="path2229"
     class="fil1"
     d="m 14151,11274 -961,1 c -448,0 -777,360 -777,751 l 0,2774 c 0,379 297,691 595,739 l -895,1343 516,0 640,-938 876,0 1,0 1,0 876,0 640,938 516,0 -895,-1343 c 299,-48 595,-360 595,-739 l 0,-2774 c 0,-392 -329,-751 -777,-751 l -954,-1 z m -381,161 376,0 1,0 1,0 376,0 c 68,0 127,57 127,125 l 0,221 c 0,68 -56,126 -127,126 l -376,0 -1,0 -1,0 -376,0 c -71,0 -127,-58 -127,-126 l 0,-221 c 0,-68 59,-125 127,-125 z m -555,622 931,0 2,0 931,0 c 253,0 387,181 387,389 l 0,499 c 2,240 -173,387 -387,387 l -931,0 -1,0 -1,0 -931,0 c -214,0 -389,-147 -387,-387 l 0,-499 c 0,-208 134,-389 387,-389 z m -42,2396 c 188,0 341,152 341,341 0,188 -152,341 -341,341 -188,0 -341,-152 -341,-341 0,-188 152,-341 341,-341 z m 1939,0 c 188,0 341,152 341,341 0,188 -153,341 -341,341 -188,0 -341,-152 -341,-341 0,-188 152,-341 341,-341 z"
     inkscape:connector-curvature="0"
     style="fill:#ffffff;stroke:none;stroke-opacity:1;fill-opacity:1" /><path
     id="path2233"
     class="fil1"
     d="m 13861,11194 c -119,0 -215,-96 -215,-215 0,-119 96,-215 215,-215 119,0 215,96 215,215 0,119 -96,215 -215,215 z"
     inkscape:connector-curvature="0"
     style="fill:#ffffff;stroke:none;stroke-opacity:1;fill-opacity:1" /><path
     id="path2235"
     class="fil1"
     d="m 14433,11194 c 119,0 215,-96 215,-215 0,-119 -96,-215 -215,-215 -119,0 -215,96 -215,215 0,119 96,215 215,215 z"
     inkscape:connector-curvature="0"
     style="fill:#ffffff;stroke:none;stroke-opacity:1;fill-opacity:1" /></svg>